<svg xmlns="http://www.w3.org/2000/svg" viewBox="0 0 360 780" width="360" height="780">
  <defs>
    <linearGradient id="bg4" x1="0%" y1="0%" x2="100%" y2="100%">
      <stop offset="0%" style="stop-color:#F5A623;stop-opacity:0.15"/>
      <stop offset="100%" style="stop-color:#D4891A;stop-opacity:0.25"/>
    </linearGradient>
  </defs>
  <rect width="360" height="780" fill="url(#bg4)" rx="0"/>

  <!-- Status bar mockup -->
  <rect width="360" height="28" fill="#F5A623" opacity="0.3"/>
  <text x="180" y="19" text-anchor="middle" fill="#F5A623" font-family="sans-serif" font-size="11" opacity="0.8">12:00</text>

  <!-- Icon -->
  <g transform="translate(140, 260)">
    <rect x="0" y="0" width="80" height="80" rx="20" fill="#F5A623" opacity="0.2"/>
    <g transform="translate(20, 20) scale(1.6)">
      <path d="M11.99 2C6.47 2 2 6.48 2 12s4.47 10 9.99 10C17.52 22 22 17.52 22 12S17.52 2 11.99 2zM12 20c-4.42 0-8-3.58-8-8s3.58-8 8-8 8 3.58 8 8-3.58 8-8 8zm.5-13H11v6l5.25 3.15.75-1.23-4.5-2.67z" fill="#F5A623" opacity="0.6"/>
    </g>
  </g>

  <!-- Label -->
  <text x="180" y="390" text-anchor="middle" fill="#F5A623" font-family="'Segoe UI',Roboto,sans-serif" font-size="20" font-weight="600" opacity="0.7">Screen Time</text>

  <!-- Subtitle -->
  <text x="180" y="420" text-anchor="middle" fill="#F5A623" font-family="'Segoe UI',Roboto,sans-serif" font-size="13" opacity="0.5">Replace with real screenshot</text>

  <!-- Decorative lines -->
  <rect x="60" y="480" width="240" height="12" rx="6" fill="#F5A623" opacity="0.1"/>
  <rect x="80" y="510" width="200" height="12" rx="6" fill="#F5A623" opacity="0.08"/>
  <rect x="100" y="540" width="160" height="12" rx="6" fill="#F5A623" opacity="0.06"/>
</svg>
