<svg xmlns="http://www.w3.org/2000/svg" viewBox="0 0 360 780" width="360" height="780">
  <defs>
    <linearGradient id="bg3" x1="0%" y1="0%" x2="100%" y2="100%">
      <stop offset="0%" style="stop-color:#50C878;stop-opacity:0.15"/>
      <stop offset="100%" style="stop-color:#3DA861;stop-opacity:0.25"/>
    </linearGradient>
  </defs>
  <rect width="360" height="780" fill="url(#bg3)" rx="0"/>

  <!-- Status bar mockup -->
  <rect width="360" height="28" fill="#50C878" opacity="0.3"/>
  <text x="180" y="19" text-anchor="middle" fill="#50C878" font-family="sans-serif" font-size="11" opacity="0.8">12:00</text>

  <!-- Icon -->
  <g transform="translate(140, 260)">
    <rect x="0" y="0" width="80" height="80" rx="20" fill="#50C878" opacity="0.2"/>
    <g transform="translate(20, 20) scale(1.6)">
      <path d="M19.14 12.94c.04-.3.06-.61.06-.94 0-.32-.02-.64-.07-.94l2.03-1.58c.18-.14.23-.41.12-.61l-1.92-3.32c-.12-.22-.37-.29-.59-.22l-2.39.96c-.5-.38-1.03-.7-1.62-.94l-.36-2.54c-.04-.24-.24-.41-.48-.41h-3.84c-.24 0-.43.17-.47.41l-.36 2.54c-.59.24-1.13.57-1.62.94l-2.39-.96c-.22-.08-.47 0-.59.22L2.74 8.87c-.12.21-.08.47.12.61l2.03 1.58c-.05.3-.07.62-.07.94s.02.64.07.94l-2.03 1.58c-.18.14-.23.41-.12.61l1.92 3.32c.12.22.37.29.59.22l2.39-.96c.5.38 1.03.7 1.62.94l.36 2.54c.05.24.24.41.48.41h3.84c.24 0 .44-.17.47-.41l.36-2.54c.59-.24 1.13-.56 1.62-.94l2.39.96c.22.08.47 0 .59-.22l1.92-3.32c.12-.22.07-.47-.12-.61l-2.01-1.58zM12 15.6c-1.98 0-3.6-1.62-3.6-3.6s1.62-3.6 3.6-3.6 3.6 1.62 3.6 3.6-1.62 3.6-3.6 3.6z" fill="#50C878" opacity="0.6"/>
    </g>
  </g>

  <!-- Label -->
  <text x="180" y="390" text-anchor="middle" fill="#50C878" font-family="'Segoe UI',Roboto,sans-serif" font-size="20" font-weight="600" opacity="0.7">Parent Settings</text>

  <!-- Subtitle -->
  <text x="180" y="420" text-anchor="middle" fill="#50C878" font-family="'Segoe UI',Roboto,sans-serif" font-size="13" opacity="0.5">Replace with real screenshot</text>

  <!-- Decorative lines -->
  <rect x="60" y="480" width="240" height="12" rx="6" fill="#50C878" opacity="0.1"/>
  <rect x="80" y="510" width="200" height="12" rx="6" fill="#50C878" opacity="0.08"/>
  <rect x="100" y="540" width="160" height="12" rx="6" fill="#50C878" opacity="0.06"/>
</svg>
