<svg xmlns="http://www.w3.org/2000/svg" viewBox="0 0 360 780" width="360" height="780">
  <defs>
    <linearGradient id="bg5" x1="0%" y1="0%" x2="100%" y2="100%">
      <stop offset="0%" style="stop-color:#E74C3C;stop-opacity:0.15"/>
      <stop offset="100%" style="stop-color:#C0392B;stop-opacity:0.25"/>
    </linearGradient>
  </defs>
  <rect width="360" height="780" fill="url(#bg5)" rx="0"/>

  <!-- Status bar mockup -->
  <rect width="360" height="28" fill="#E74C3C" opacity="0.3"/>
  <text x="180" y="19" text-anchor="middle" fill="#E74C3C" font-family="sans-serif" font-size="11" opacity="0.8">12:00</text>

  <!-- Icon -->
  <g transform="translate(140, 260)">
    <rect x="0" y="0" width="80" height="80" rx="20" fill="#E74C3C" opacity="0.2"/>
    <g transform="translate(20, 20) scale(1.6)">
      <path d="M18 8h-1V6c0-2.76-2.24-5-5-5S7 3.24 7 6v2H6c-1.1 0-2 .9-2 2v10c0 1.1.9 2 2 2h12c1.1 0 2-.9 2-2V10c0-1.1-.9-2-2-2zm-6 9c-1.1 0-2-.9-2-2s.9-2 2-2 2 .9 2 2-.9 2-2 2zm3.1-9H8.9V6c0-1.71 1.39-3.1 3.1-3.1 1.71 0 3.1 1.39 3.1 3.1v2z" fill="#E74C3C" opacity="0.6"/>
    </g>
  </g>

  <!-- Label -->
  <text x="180" y="390" text-anchor="middle" fill="#E74C3C" font-family="'Segoe UI',Roboto,sans-serif" font-size="20" font-weight="600" opacity="0.7">PIN Entry</text>

  <!-- Subtitle -->
  <text x="180" y="420" text-anchor="middle" fill="#E74C3C" font-family="'Segoe UI',Roboto,sans-serif" font-size="13" opacity="0.5">Replace with real screenshot</text>

  <!-- Decorative lines -->
  <rect x="60" y="480" width="240" height="12" rx="6" fill="#E74C3C" opacity="0.1"/>
  <rect x="80" y="510" width="200" height="12" rx="6" fill="#E74C3C" opacity="0.08"/>
  <rect x="100" y="540" width="160" height="12" rx="6" fill="#E74C3C" opacity="0.06"/>
</svg>
