<svg xmlns="http://www.w3.org/2000/svg" viewBox="0 0 360 780" width="360" height="780">
  <defs>
    <linearGradient id="bg2" x1="0%" y1="0%" x2="100%" y2="100%">
      <stop offset="0%" style="stop-color:#4A90E2;stop-opacity:0.15"/>
      <stop offset="100%" style="stop-color:#3672B5;stop-opacity:0.25"/>
    </linearGradient>
  </defs>
  <rect width="360" height="780" fill="url(#bg2)" rx="0"/>

  <!-- Status bar mockup -->
  <rect width="360" height="28" fill="#4A90E2" opacity="0.3"/>
  <text x="180" y="19" text-anchor="middle" fill="#4A90E2" font-family="sans-serif" font-size="11" opacity="0.8">12:00</text>

  <!-- Icon -->
  <g transform="translate(140, 260)">
    <rect x="0" y="0" width="80" height="80" rx="20" fill="#4A90E2" opacity="0.2"/>
    <g transform="translate(20, 20) scale(1.6)">
      <path d="M3 13h8V3H3v10zm0 8h8v-6H3v6zm10 0h8V11h-8v10zm0-18v6h8V3h-8z" fill="#4A90E2" opacity="0.6"/>
    </g>
  </g>

  <!-- Label -->
  <text x="180" y="390" text-anchor="middle" fill="#4A90E2" font-family="'Segoe UI',Roboto,sans-serif" font-size="20" font-weight="600" opacity="0.7">Home Dashboard</text>

  <!-- Subtitle -->
  <text x="180" y="420" text-anchor="middle" fill="#4A90E2" font-family="'Segoe UI',Roboto,sans-serif" font-size="13" opacity="0.5">Replace with real screenshot</text>

  <!-- Decorative lines -->
  <rect x="60" y="480" width="240" height="12" rx="6" fill="#4A90E2" opacity="0.1"/>
  <rect x="80" y="510" width="200" height="12" rx="6" fill="#4A90E2" opacity="0.08"/>
  <rect x="100" y="540" width="160" height="12" rx="6" fill="#4A90E2" opacity="0.06"/>
</svg>
